<?xml version="1.0" encoding="utf-8"?>
<!-- Generator: Adobe Illustrator 19.2.1, SVG Export Plug-In . SVG Version: 6.00 Build 0)  -->
<svg version="1.1" xmlns="http://www.w3.org/2000/svg" xmlns:xlink="http://www.w3.org/1999/xlink" x="0px" y="0px"
	 viewBox="0 0 500 500" style="enable-background:new 0 0 500 500;" xml:space="preserve">
<style type="text/css">
	.st0{display:none;}
	.st1{display:inline;fill:none;stroke:#000000;stroke-width:6;stroke-miterlimit:10;}
	.st2{display:inline;}
	.st3{fill:none;stroke:#000000;stroke-width:6;stroke-miterlimit:10;}
	.st4{fill:none;stroke:#000000;stroke-width:10;stroke-linecap:round;stroke-linejoin:round;stroke-miterlimit:10;}
	.st5{fill:none;stroke:#000000;stroke-width:50;stroke-miterlimit:10;}
	.st6{fill:#FFFFFF;stroke:#000000;stroke-width:20;stroke-miterlimit:10;}
	.st7{fill:#FFFFFF;stroke:#000000;stroke-width:29;stroke-miterlimit:10;}
	.st8{fill:#FFFFFF;}
</style>
<g id="Capa_1" class="st0">
	<g class="st2">
		<circle class="st3" cx="116.8" cy="250.3" r="18.8"/>
		<circle class="st3" cx="174.2" cy="250.3" r="18.8"/>
		<circle class="st3" cx="333" cy="250.3" r="18.8"/>
		<circle class="st3" cx="438" cy="251" r="18.8"/>
		<g>
			<g>
				<rect x="62" y="234" class="st3" width="1" height="32"/>
			</g>
			<g>
				<rect x="46" y="250" class="st3" width="32" height="1"/>
			</g>
		</g>
		<g>
			<g>
				<rect x="228" y="234" class="st3" width="1" height="32"/>
			</g>
			<g>
				<rect x="212" y="250" class="st3" width="32" height="1"/>
			</g>
		</g>
		<g>
			<g>
				<rect x="279" y="234" class="st3" width="1" height="32"/>
			</g>
			<g>
				<rect x="263" y="250" class="st3" width="32" height="1"/>
			</g>
		</g>
		<g>
			<g>
				<rect x="387" y="234" class="st3" width="1" height="32"/>
			</g>
			<g>
				<rect x="371" y="250" class="st3" width="32" height="1"/>
			</g>
		</g>
	</g>
</g>
<g id="Capa_2" class="st0">
	<g class="st2">
		<path class="st4" d="M441.7,192.7c-6.2-21.2-15.9-40.8-28.3-58.4c-9.3,3.1-19.3,4.9-29.7,4.9c-48.8,0-88.8-37.7-92.6-85.5
			c-13.3-2.8-27.2-4.3-41.4-4.3c-29.3,0-57.1,6.4-82.2,17.7c5,13.8,7.7,28.7,7.7,44.2c0,70.3-55.8,127.4-125.5,129.8
			c-0.1,2.8-0.2,5.7-0.2,8.5c0,35.9,9.5,69.5,26,98.6c12.7-5.9,26.8-9.1,41.7-9.1c55,0,99.6,44.6,99.6,99.6c0,2.8-0.1,5.6-0.4,8.3
			c10.8,1.8,21.9,2.8,33.3,2.8c7.4,0,14.7-0.4,21.8-1.2l-20.8-224.4L441.7,192.7z M271.8,60.3c4.8,0,8.7,3.9,8.7,8.7
			c0,4.8-3.9,8.7-8.7,8.7s-8.7-3.9-8.7-8.7C263.1,64.2,267,60.3,271.8,60.3z M83.9,337.6c-4.8,0-8.7-3.9-8.7-8.7
			c0-4.8,3.9-8.7,8.7-8.7c4.8,0,8.7,3.9,8.7,8.7C92.6,333.7,88.7,337.6,83.9,337.6z M120.8,285.9c-4.8,0-8.7-3.9-8.7-8.7
			c0-4.8,3.9-8.7,8.7-8.7c4.8,0,8.7,3.9,8.7,8.7C129.5,282,125.6,285.9,120.8,285.9z M159.1,233.6c-4.8,0-8.7-3.9-8.7-8.7
			c0-4.8,3.9-8.7,8.7-8.7c4.8,0,8.7,3.9,8.7,8.7C167.8,229.7,163.9,233.6,159.1,233.6z M196.4,181.8c-4.8,0-8.7-3.9-8.7-8.7
			c0-4.8,3.9-8.7,8.7-8.7c4.8,0,8.7,3.9,8.7,8.7C205.1,177.9,201.2,181.8,196.4,181.8z M234.2,130.8c-4.8,0-8.7-3.9-8.7-8.7
			s3.9-8.7,8.7-8.7c4.8,0,8.7,3.9,8.7,8.7S239,130.8,234.2,130.8z"/>
		<path class="st4" d="M117.2,339c-14.9,0-29,3.3-41.7,9.1c29.2,51.4,80.4,88.7,140.9,98.8c0.2-2.7,0.4-5.5,0.4-8.3
			C216.9,383.6,172.2,339,117.2,339z"/>
		<path class="st4" d="M175.2,111.2c0-15.5-2.7-30.4-7.7-44.2C100.4,97.3,53,163.4,49.8,241C119.5,238.7,175.2,181.5,175.2,111.2z"
			/>
		<path class="st4" d="M383.7,139.2c10.4,0,20.4-1.7,29.7-4.9c-5.6-7.9-11.7-15.3-18.3-22.3c-2.3,0.2-4.6,0.4-7,0.4
			c-33,0-60.9-21.5-70.7-51.2c-8.5-3.1-17.3-5.6-26.3-7.5C294.9,101.5,334.9,139.2,383.7,139.2z"/>
		<path class="st4" d="M317.4,61.1c9.7,29.7,37.7,51.2,70.7,51.2c2.4,0,4.7-0.1,7-0.4C373.8,89.4,347.3,71.8,317.4,61.1z"/>
		<circle cx="271.8" cy="69" r="8.7"/>
		<circle cx="234.2" cy="122.1" r="8.7"/>
		<circle cx="196.4" cy="173.1" r="8.7"/>
		<circle cx="159.1" cy="224.9" r="8.7"/>
		<circle cx="120.8" cy="277.2" r="8.7"/>
		<circle cx="83.9" cy="328.9" r="8.7"/>
		<path class="st4" d="M308.3,381.8c0-79.9,62.2-145.3,140.8-150.5c-1.2-13.2-3.7-26.1-7.3-38.5l-190.9,31.3l20.8,224.4
			c16.5-1.8,32.3-5.5,47.3-11.1C312.1,420.2,308.3,401.4,308.3,381.8z"/>
		<path class="st4" d="M308.3,381.8c0,19.7,3.8,38.4,10.6,55.7c76.5-28.2,131-101.7,131-187.9c0-6.2-0.3-12.3-0.9-18.3
			C370.5,236.4,308.3,301.8,308.3,381.8z"/>
	</g>
</g>
<g id="Capa_3" class="st0">
	<g class="st2">
		<g>
			<path d="M250,276c-14.4,0-26-11.7-26-26s11.7-26,26-26s26,11.7,26,26S264.4,276,250,276z M250,230c-11,0-20,9-20,20s9,20,20,20
				s20-9,20-20S261,230,250,230z"/>
		</g>
		<g>
			<path d="M250,305.1c-30.4,0-55.1-24.7-55.1-55.1s24.7-55.1,55.1-55.1s55.1,24.7,55.1,55.1S280.4,305.1,250,305.1z M250,200.9
				c-27.1,0-49.1,22-49.1,49.1s22,49.1,49.1,49.1s49.1-22,49.1-49.1S277.1,200.9,250,200.9z"/>
		</g>
		<g>
			<path d="M250,333.5c-46,0-83.5-37.4-83.5-83.5s37.4-83.5,83.5-83.5s83.5,37.4,83.5,83.5S296,333.5,250,333.5z M250,172.5
				c-42.7,0-77.5,34.8-77.5,77.5s34.8,77.5,77.5,77.5s77.5-34.8,77.5-77.5S292.7,172.5,250,172.5z"/>
		</g>
		<g>
			<path d="M324.1,170H177l37.1-53.8l36.4-50.7L324.1,170z M188.5,164h124l-62-88.1l-31.4,43.8L188.5,164z"/>
		</g>
		<g>
			<path d="M249.5,433.8L176,330H323l-37.2,53.3L249.5,433.8z M187.6,336l62,87.5l31.4-43.6l30.6-43.9H187.6z"/>
		</g>
		<g>
			<path d="M250.7,452.8c-111.6,0-202.3-90.8-202.3-202.3S139.1,48.2,250.7,48.2c111.6,0,202.3,90.8,202.3,202.3
				S362.3,452.8,250.7,452.8z M250.7,54.2c-108.3,0-196.3,88.1-196.3,196.3s88.1,196.3,196.3,196.3s196.3-88.1,196.3-196.3
				S359,54.2,250.7,54.2z"/>
		</g>
	</g>
</g>
<g id="Capa_4" class="st0">
	<g class="st2">
		<g>
			<path class="st4" d="M144.2,388c23.5,34.3,63,56.8,107.7,56.8c72,0,130.5-58.4,130.5-130.5c0-24.8-6.9-48-19-67.8"/>
			<path class="st4" d="M248.3,315.4L144.2,388L248.3,315.4c-47.2,0-88.6-25.1-111.5-62.7"/>
			<path class="st4" d="M251.8,183.9L342.7,95c-23.8-24.9-57.3-40.5-94.4-40.5c-72,0-130.5,58.4-130.5,130.5c0,24.8,6.9,48,19,67.8"
				/>
			<path class="st4" d="M136.8,252.7c22.9,37.6,64.3,62.7,111.5,62.7"/>
			<path class="st4" d="M363.3,246.5c-22.9-37.6-64.3-62.7-111.5-62.7"/>
		</g>
		<circle class="st4" cx="244.9" cy="244.7" r="44.7"/>
		<g>
			<path class="st4" d="M317.7,292.6l-111.6,89.1c13.1,13.9,31.6,22.6,52.2,22.6c39.6,0,71.6-32.1,71.6-71.6
				C330,317.8,325.5,304.1,317.7,292.6z"/>
		</g>
		<g>
			<path class="st4" d="M177,213.7l99-102.9c-14.8-12.1-34.3-18.3-54.7-15.6c-39.2,5.2-66.8,41.1-61.7,80.3
				C161.5,190.3,167.8,203.4,177,213.7z"/>
		</g>
	</g>
</g>
<g id="Capa_5">
	<g>
		<path class="st5" d="M199.5,427.7c-6,0-12.7-0.9-19.6-3.5c-13-4.9-20.6-13.6-24.2-17.8c-0.3-0.3-0.5-0.6-0.7-0.8
			c-35.4-38.9-50.2-64.6-57.3-77l-0.7-1.2C75,289.5,60.8,258.6,53.1,212.7c-0.5-2.8-4.5-28.3,0.2-56.8c6.5-39,26.2-65.9,57.2-77.9
			c26.5-10.2,51.3-4.6,63.7-0.3c22.8,7.9,52,24.8,76,60.8c19.4-29.7,44.7-50.1,75.6-60.8c12.4-4.3,37.2-10,63.7,0.3
			c31,12,50.8,38.9,57.2,77.9c4.7,28.5,0.7,53.9,0.2,56.8c-7.8,45.9-22,76.8-43.8,114.7l-0.7,1.2c-7.1,12.4-21.9,38.1-57.4,77
			c-0.2,0.2-0.5,0.5-0.7,0.8c-3.6,4.2-11.2,12.9-24.2,17.8c-18.2,6.8-35,1.8-41.3-0.1c-3.9-1.2-7.6-2.6-11-4.1
			c-11.3-5.1-24.3-5.1-35.6,0c-3.4,1.5-7.1,3-11,4.1C217.3,425.3,209.3,427.7,199.5,427.7z"/>
	</g>
</g>
</svg>
