<?xml version="1.0" encoding="utf-8"?>
<!-- Generator: Adobe Illustrator 19.2.1, SVG Export Plug-In . SVG Version: 6.00 Build 0)  -->
<svg version="1.1" xmlns="http://www.w3.org/2000/svg" xmlns:xlink="http://www.w3.org/1999/xlink" x="0px" y="0px"
	 viewBox="0 0 500 500" style="enable-background:new 0 0 500 500;" xml:space="preserve">
<style type="text/css">
	.st0{display:none;}
	.st1{display:inline;fill:none;stroke:#000000;stroke-width:6;stroke-miterlimit:10;}
	.st2{display:inline;}
	.st3{fill:none;stroke:#000000;stroke-width:6;stroke-miterlimit:10;}
	.st4{fill:none;stroke:#000000;stroke-width:10;stroke-linecap:round;stroke-linejoin:round;stroke-miterlimit:10;}
	.st5{fill:none;stroke:#000000;stroke-width:50;stroke-miterlimit:10;}
	.st6{fill:#FFFFFF;stroke:#000000;stroke-width:20;stroke-miterlimit:10;}
	.st7{fill:#FFFFFF;stroke:#000000;stroke-width:29;stroke-miterlimit:10;}
	.st8{fill:#FFFFFF;}
</style>
<g id="Capa_1" class="st0">
	<g class="st2">
		<circle class="st3" cx="116.8" cy="249.3" r="18.8"/>
		<circle class="st3" cx="227" cy="249.5" r="18.8"/>
		<circle class="st3" cx="385.1" cy="250" r="18.8"/>
		<g>
			<g>
				<rect x="280" y="234" class="st3" width="1" height="32"/>
			</g>
			<g>
				<rect x="264" y="250" class="st3" width="32" height="1"/>
			</g>
		</g>
		<g>
			<g>
				<rect x="332" y="234" class="st3" width="1" height="32"/>
			</g>
			<g>
				<rect x="316" y="250" class="st3" width="32" height="1"/>
			</g>
		</g>
		<g>
			<g>
				<rect x="438" y="234" class="st3" width="1" height="32"/>
			</g>
			<g>
				<rect x="422" y="250" class="st3" width="32" height="1"/>
			</g>
		</g>
		<g>
			<g>
				<rect x="64" y="234" class="st3" width="1" height="32"/>
			</g>
			<g>
				<rect x="48" y="250" class="st3" width="32" height="1"/>
			</g>
		</g>
		<g>
			<g>
				<rect x="172" y="233" class="st3" width="1" height="32"/>
			</g>
			<g>
				<rect x="156" y="249" class="st3" width="32" height="1"/>
			</g>
		</g>
	</g>
</g>
<g id="Capa_2" class="st0">
	<g class="st2">
		<path class="st4" d="M439.5,192.4c-3.7-12.2-8.6-23.9-14.5-35c-18.7,10.4-40.3,16.3-63.2,16.3c-68.8,0-125.1-53.2-130.1-120.7
			c-22.3,2.1-43.4,7.8-62.9,16.6c4.9,13.7,7.6,28.4,7.6,43.7c0,69.5-55.2,126.1-124.1,128.4c-0.1,2.8-0.2,5.6-0.2,8.4
			c0,35.5,9.4,68.7,25.7,97.5c12.5-5.8,26.5-9,41.2-9c54.4,0,98.6,44.1,98.6,98.6c0,2.8-0.1,5.5-0.4,8.2c10.7,1.8,21.7,2.8,32.9,2.8
			c8.2,0,16.3-0.6,24.3-1.5l-34.7-223.2L439.5,192.4z M97.8,289.6c-4.7,0-8.6-3.8-8.6-8.6c0-4.7,3.8-8.6,8.6-8.6
			c4.7,0,8.6,3.8,8.6,8.6C106.4,285.8,102.6,289.6,97.8,289.6z M145.4,265.3c-4.7,0-8.6-3.8-8.6-8.6s3.8-8.6,8.6-8.6
			c4.7,0,8.6,3.8,8.6,8.6S150.2,265.3,145.4,265.3z M180,227.3c-4.7,0-8.6-3.8-8.6-8.6c0-4.7,3.8-8.6,8.6-8.6c4.7,0,8.6,3.8,8.6,8.6
			C188.6,223.5,184.8,227.3,180,227.3z M210.4,170.9c-4.7,0-8.6-3.8-8.6-8.6c0-4.7,3.8-8.6,8.6-8.6c4.7,0,8.6,3.8,8.6,8.6
			C219,167.1,215.2,170.9,210.4,170.9z M220.6,114.4c-4.7,0-8.6-3.8-8.6-8.6s3.8-8.6,8.6-8.6c4.7,0,8.6,3.8,8.6,8.6
			S225.3,114.4,220.6,114.4z"/>
		<path class="st4" d="M118.9,338.6c-14.7,0-28.7,3.3-41.2,9c28.9,50.9,79.6,87.7,139.4,97.7c0.2-2.7,0.4-5.4,0.4-8.2
			C217.5,382.7,173.4,338.6,118.9,338.6z"/>
		<path class="st4" d="M176.3,113.3c0-15.4-2.7-30.1-7.6-43.7c-66.4,30-113.2,95.4-116.5,172.1C121.1,239.4,176.3,182.8,176.3,113.3
			z"/>
		<path class="st4" d="M361.7,173.7c23,0,44.5-5.9,63.2-16.3c-4.1-7.7-8.7-15.1-13.7-22.1c-14.7,7.9-31.6,12.5-49.5,12.5
			c-54.7,0-99.5-42-104.1-95.4c-2.5-0.1-5-0.2-7.6-0.2c-6.2,0-12.3,0.3-18.4,0.9C236.6,120.5,293,173.7,361.7,173.7z"/>
		<path class="st4" d="M257.6,52.3c4.6,53.5,49.5,95.4,104.1,95.4c17.9,0,34.8-4.5,49.5-12.5C376.7,86.9,321,54.7,257.6,52.3z"/>
		<circle cx="220.6" cy="105.8" r="8.6"/>
		<circle cx="210.4" cy="162.3" r="8.6"/>
		<circle cx="180" cy="218.7" r="8.6"/>
		<circle cx="145.4" cy="256.7" r="8.6"/>
		<circle cx="97.8" cy="281" r="8.6"/>
		<path class="st4" d="M307.9,380.9c0-79.1,61.5-143.8,139.3-148.9c-1.2-13.7-3.8-26.9-7.7-39.6l-199.8,31l34.7,223.2
			c15.3-1.9,30.1-5.4,44.1-10.6C311.7,419,307.9,400.4,307.9,380.9z"/>
		<path class="st4" d="M307.9,380.9c0,19.5,3.8,38,10.5,55.1c75.6-27.9,129.6-100.6,129.6-185.9c0-6.1-0.3-12.1-0.9-18.1
			C369.4,237.2,307.9,301.9,307.9,380.9z"/>
	</g>
</g>
<g id="Capa_3" class="st0">
	<g class="st2">
		<g>
			<path d="M250.3,451.3c-111.3,0-201.8-90.5-201.8-201.8S139,47.7,250.3,47.7c111.3,0,201.8,90.5,201.8,201.8
				S361.6,451.3,250.3,451.3z M250.3,53.7c-108,0-195.8,87.8-195.8,195.8s87.8,195.8,195.8,195.8s195.8-87.8,195.8-195.8
				S358.3,53.7,250.3,53.7z"/>
		</g>
		<g>
			<path d="M249.1,274.6c-14.3,0-26-11.6-26-26s11.6-26,26-26s26,11.6,26,26S263.4,274.6,249.1,274.6z M249.1,228.6
				c-11,0-20,9-20,20s9,20,20,20s20-9,20-20S260.1,228.6,249.1,228.6z"/>
		</g>
		<g>
			<path d="M249.1,303.6c-30.3,0-55-24.7-55-55s24.7-55,55-55s55,24.7,55,55S279.4,303.6,249.1,303.6z M249.1,199.6
				c-27,0-49,22-49,49s22,49,49,49s49-22,49-49S276.1,199.6,249.1,199.6z"/>
		</g>
		<g>
			<path d="M249.1,331.9c-45.9,0-83.3-37.3-83.3-83.3s37.3-83.3,83.3-83.3s83.3,37.3,83.3,83.3S295,331.9,249.1,331.9z M249.1,171.4
				c-42.6,0-77.3,34.7-77.3,77.3s34.7,77.3,77.3,77.3s77.3-34.7,77.3-77.3S291.7,171.4,249.1,171.4z"/>
		</g>
		<g>
			<path d="M249.9,167.5L176.6,64h146.6l-37,53.4L249.9,167.5z M188.1,70l61.9,87.1l31.3-43.2l30.5-44H188.1z"/>
		</g>
		<g>
			<path d="M323.2,437H176.7l37-56.2l36.3-50.4L323.2,437z M188,431h123.8l-61.9-90.9L218.6,385L188,431z"/>
		</g>
	</g>
</g>
<g id="Capa_4" class="st0">
	<g class="st2">
		<path class="st4" d="M307.6,191.1c0-51.7-41.9-94.2-93.6-94.2c-51.7,0-93.6,42.8-93.6,94.5c0,8.9,1.3,18.6,3.6,26.6h180
			C306.3,210,307.6,200,307.6,191.1z"/>
		<path class="st4" d="M197.4,288c-2.1,7-3.3,14.5-3.3,23c0,51.7,41.9,92.8,93.6,92.8s93.6-40.8,93.6-92.5c0-8.5-1.1-16.4-3.3-23.4
			H197.4z"/>
		<path class="st4" d="M351.4,174.1c-11.4-67.7-70.3-119.2-141.2-119.2C131,54.8,66.9,119,66.9,198.1c0,18.2,3.4,35.7,9.7,51.7
			l80.8-1.2"/>
		<path class="st4" d="M148.5,327.4c11.4,67.7,70.3,119.2,141.2,119.2c79.1,0,143.2-64.1,143.2-143.2c0-20.9-4.5-40.8-12.6-58.7
			l-75.2,1.1"/>
		<path class="st4" d="M345.2,245.8c5.3-14.9,8.2-31,8.2-47.8c0-8.2-0.7-16.2-2-24"/>
		<path class="st4" d="M157.4,248.6c-7,16.9-10.9,35.4-10.9,54.8c0,8.2,0.7,16.2,2,24"/>
	</g>
</g>
<g id="Capa_5">
	<circle class="st5" cx="250" cy="250" r="200"/>
</g>
</svg>
