<?xml version="1.0" encoding="utf-8"?>
<!-- Generator: Adobe Illustrator 19.2.1, SVG Export Plug-In . SVG Version: 6.00 Build 0)  -->
<svg version="1.1" xmlns="http://www.w3.org/2000/svg" xmlns:xlink="http://www.w3.org/1999/xlink" x="0px" y="0px"
	 viewBox="0 0 500 500" style="enable-background:new 0 0 500 500;" xml:space="preserve">
<style type="text/css">
	.st0{display:none;}
	.st1{display:inline;fill:none;stroke:#000000;stroke-width:6;stroke-miterlimit:10;}
	.st2{display:inline;}
	.st3{fill:none;stroke:#000000;stroke-width:6;stroke-miterlimit:10;}
	.st4{fill:none;stroke:#000000;stroke-width:10;stroke-linecap:round;stroke-linejoin:round;stroke-miterlimit:10;}
	.st5{fill:none;stroke:#000000;stroke-width:50;stroke-miterlimit:10;}
	.st6{fill:#FFFFFF;stroke:#000000;stroke-width:20;stroke-miterlimit:10;}
	.st7{fill:#FFFFFF;stroke:#000000;stroke-width:29;stroke-miterlimit:10;}
	.st8{fill:#FFFFFF;}
</style>
<g id="Capa_1" class="st0">
	<g class="st2">
		<circle class="st3" cx="116.8" cy="250.3" r="18.8"/>
		<circle class="st3" cx="174.2" cy="250.3" r="18.8"/>
		<circle class="st3" cx="333" cy="250.3" r="18.8"/>
		<g>
			<g>
				<rect x="62" y="234" class="st3" width="1" height="32"/>
			</g>
			<g>
				<rect x="46" y="250" class="st3" width="32" height="1"/>
			</g>
		</g>
		<g>
			<g>
				<rect x="228" y="234" class="st3" width="1" height="32"/>
			</g>
			<g>
				<rect x="212" y="250" class="st3" width="32" height="1"/>
			</g>
		</g>
		<g>
			<g>
				<rect x="279" y="234" class="st3" width="1" height="32"/>
			</g>
			<g>
				<rect x="263" y="250" class="st3" width="32" height="1"/>
			</g>
		</g>
		<g>
			<g>
				<rect x="387" y="234" class="st3" width="1" height="32"/>
			</g>
			<g>
				<rect x="371" y="250" class="st3" width="32" height="1"/>
			</g>
		</g>
		<g>
			<g>
				<rect x="438" y="234" class="st3" width="1" height="32"/>
			</g>
			<g>
				<rect x="422" y="250" class="st3" width="32" height="1"/>
			</g>
		</g>
	</g>
</g>
<g id="Capa_2" class="st0">
	<g class="st2">
		<path class="st4" d="M440.8,190c-6-19.1-14.8-36.9-25.9-53c-10.8,4-22.5,6.2-34.6,6.2c-52,0-94.7-39.9-99.1-90.7
			C271,50.8,260.6,50,250,50c-29,0-56.6,6.2-81.5,17.4c7.2,16.2,11.3,34,11.3,52.9C179.8,191.9,121.7,250,50,250
			c0,40.2,11.9,77.5,32.3,108.9c7.5-1.8,15.4-2.8,23.5-2.8c51.3,0,93.6,38.9,98.9,88.7c14.6,3.4,29.7,5.2,45.3,5.2
			c16.4,0,32.4-2,47.7-5.8l-41-220L440.8,190z M108.9,287.4c-4.8,0-8.7-3.9-8.7-8.7c0-4.8,3.9-8.7,8.7-8.7c4.8,0,8.7,3.9,8.7,8.7
			C117.6,283.5,113.7,287.4,108.9,287.4z M157,263.2c-4.8,0-8.7-3.9-8.7-8.7c0-4.8,3.9-8.7,8.7-8.7c4.8,0,8.7,3.9,8.7,8.7
			C165.7,259.4,161.8,263.2,157,263.2z M189.8,224.9c-4.8,0-8.7-3.9-8.7-8.7c0-4.8,3.9-8.7,8.7-8.7c4.8,0,8.7,3.9,8.7,8.7
			C198.5,221,194.6,224.9,189.8,224.9z M218.7,170c-4.8,0-8.7-3.9-8.7-8.7c0-4.8,3.9-8.7,8.7-8.7c4.8,0,8.7,3.9,8.7,8.7
			C227.4,166.1,223.5,170,218.7,170z M228.9,112.9c-4.8,0-8.7-3.9-8.7-8.7c0-4.8,3.9-8.7,8.7-8.7c4.8,0,8.7,3.9,8.7,8.7
			C237.6,109.1,233.7,112.9,228.9,112.9z"/>
		<path class="st4" d="M105.8,356c-8.1,0-16,1-23.5,2.8c27.8,42.7,71.4,74.1,122.5,85.9C199.4,394.9,157.1,356,105.8,356z"/>
		<path class="st4" d="M179.8,120.2c0-18.8-4-36.7-11.3-52.9C98.7,98.6,50,168.6,50,250C121.7,250,179.8,191.9,179.8,120.2z"/>
		<path class="st4" d="M380.3,143.2c12.2,0,23.8-2.2,34.6-6.2c-5.5-8.1-11.6-15.7-18.3-22.8c-5.3,1.2-10.7,1.9-16.4,1.9
			c-34.7,0-63.7-24.4-70.7-57c-9.2-2.9-18.7-5.1-28.4-6.6C285.7,103.3,328.3,143.2,380.3,143.2z"/>
		<path class="st4" d="M309.6,59c7.1,32.6,36,57,70.7,57c5.6,0,11.1-0.7,16.4-1.9C373.2,88.8,343.4,69.6,309.6,59z"/>
		<circle cx="228.9" cy="104.3" r="8.7"/>
		<circle cx="218.7" cy="161.3" r="8.7"/>
		<circle cx="189.8" cy="216.2" r="8.7"/>
		<circle cx="157" cy="254.6" r="8.7"/>
		<circle cx="108.9" cy="278.7" r="8.7"/>
		<path class="st4" d="M325.3,375.6c0-69.9,55.4-126.9,124.6-129.6c-0.4-19.5-3.5-38.3-9.1-56l-184.1,34.3l41,220
			c13.8-3.4,27-8.1,39.5-14.2C329.6,413.5,325.3,395.1,325.3,375.6z"/>
		<path class="st4" d="M450,250c0-1.3-0.1-2.7-0.1-4c-69.3,2.7-124.6,59.7-124.6,129.6c0,19.4,4.3,37.8,11.9,54.4
			C404,397.6,450,329.2,450,250z"/>
	</g>
</g>
<g id="Capa_3" class="st0">
	<g class="st2">
		<path d="M250.3,452.3c-111.9,0-202.8-91-202.8-202.8s91-202.8,202.8-202.8s202.8,91,202.8,202.8S362.1,452.3,250.3,452.3z
			 M250.3,52.7C141.7,52.7,53.4,141,53.4,249.5s88.3,196.8,196.8,196.8S447.1,358,447.1,249.5S358.8,52.7,250.3,52.7z"/>
	</g>
	<g class="st2">
		<path d="M250,275.3c-13.9,0-25.3-11.3-25.3-25.3s11.3-25.3,25.3-25.3s25.3,11.3,25.3,25.3S263.9,275.3,250,275.3z M250,230.5
			c-10.7,0-19.5,8.7-19.5,19.5s8.7,19.5,19.5,19.5s19.5-8.7,19.5-19.5S260.7,230.5,250,230.5z"/>
	</g>
	<g class="st2">
		<path d="M250,303.5c-29.5,0-53.5-24-53.5-53.5c0-29.5,24-53.5,53.5-53.5c29.5,0,53.5,24,53.5,53.5
			C303.5,279.5,279.5,303.5,250,303.5z M250,202.3c-26.3,0-47.7,21.4-47.7,47.7s21.4,47.7,47.7,47.7s47.7-21.4,47.7-47.7
			S276.3,202.3,250,202.3z"/>
	</g>
	<g class="st2">
		<path d="M250,331.1c-44.7,0-81.1-36.4-81.1-81.1c0-44.7,36.4-81.1,81.1-81.1s81.1,36.4,81.1,81.1
			C331.1,294.7,294.7,331.1,250,331.1z M250,174.8c-41.5,0-75.2,33.8-75.2,75.2s33.8,75.2,75.2,75.2s75.2-33.8,75.2-75.2
			S291.5,174.8,250,174.8z"/>
	</g>
	<g class="st2">
		<path d="M250,351.5c-56,0-101.5-45.5-101.5-101.5c0-56,45.5-101.5,101.5-101.5S351.5,194,351.5,250C351.5,306,306,351.5,250,351.5
			z M250,154.3c-52.8,0-95.7,42.9-95.7,95.7s42.9,95.7,95.7,95.7c52.8,0,95.7-42.9,95.7-95.7S302.8,154.3,250,154.3z"/>
	</g>
	<g class="st2">
		<path d="M323.6,152H176.3l37.2-54L250,47.1L323.6,152z M187.7,146h124.4l-62.2-88.5l-31.5,44L187.7,146z"/>
	</g>
	<g class="st2">
		<path d="M249.9,452.2L176.2,348h147.4l-37.2,53.6L249.9,452.2z M187.8,354l62.2,87.9l31.5-43.8l30.7-44.1H187.8z"/>
	</g>
</g>
<g id="Capa_4" class="st0">
	<g class="st2">
		<path class="st4" d="M198.9,302.3l-35.7,58.2c16.5,50.4,63.9,86.8,119.8,86.8c69.6,0,126-56.4,126-126
			c0-49.6-28.7-92.5-70.3-113.1"/>
		<path class="st4" d="M263.7,196.8l56.1-91.5c-22.8-32.5-60.5-53.8-103.2-53.8c-69.6,0-126,56.4-126,126
			c0,49.6,28.7,92.5,70.3,113.1"/>
		<path class="st4" d="M338.7,208.2c-16.8-8.3-35.7-13-55.7-13c-6.6,0-13.1,0.5-19.4,1.5l-64.7,105.6"/>
		<path class="st4" d="M160.8,290.6c11.8,5.8,24.6,9.8,38.2,11.7l64.7-105.6"/>
		<path class="st4" d="M272.8,353.1c0.9-6.3-12.8-8.1-14-18.4c-3.4-30.1,16.4-55.7,39.3-65.6c3.1-1.3,21.5-8,30.7,1.7
			c4.1,4.3,8.7,11.6,5.5,17.1c-6.8,11.6-21,14.3-20.2,18.4c0.5,2.4,6.2,1.2,10.6,4.4c9.1,6.7,6.3,28.1,0.7,42
			c-6.7,16.6-22.3,34.7-42.7,37.2c-4,0.5-14.9,1.9-23.2-5.1c-1.3-1.1-9-7.8-7.5-14.7C254,360.3,271.6,361.1,272.8,353.1z"/>
		<path class="st4" d="M166.9,169c1.6,0-9.3-3.3-16.4-12c-0.5-0.6-8.9-11-6.8-20.2c3.1-14.1,30.2-21.6,51.2-19.1
			c31.2,3.7,59.2,36.8,51.9,36.9c-39.3,0.3,0,0-39.3,0.3c-6.6,0.1,27,17.5,25.6,31.1c-1.3,12.8-30.2,24.8-55.3,20.2
			c-28.7-5.3-53.6-38.5-46.1-38.3C166.9,169,131.7,167.9,166.9,169z"/>
	</g>
</g>
<g id="Capa_5">
	<polyline class="st5" points="411.5,225 411.5,449.4 88.5,449.4 88.5,225 	"/>
	<polygon class="st7" points="408.5,234.5 430,234.5 250.8,55 70,235.5 94.6,235.5 252.7,77.7 	"/>
</g>
</svg>
