<?xml version="1.0" encoding="utf-8"?>
<!-- Generator: Adobe Illustrator 19.2.1, SVG Export Plug-In . SVG Version: 6.00 Build 0)  -->
<svg version="1.1" xmlns="http://www.w3.org/2000/svg" xmlns:xlink="http://www.w3.org/1999/xlink" x="0px" y="0px"
	 viewBox="0 0 500 500" style="enable-background:new 0 0 500 500;" xml:space="preserve">
<style type="text/css">
	.st0{display:none;}
	.st1{display:inline;fill:none;stroke:#000000;stroke-width:6;stroke-miterlimit:10;}
	.st2{display:inline;}
	.st3{fill:none;stroke:#000000;stroke-width:6;stroke-miterlimit:10;}
	.st4{fill:none;stroke:#000000;stroke-width:10;stroke-linecap:round;stroke-linejoin:round;stroke-miterlimit:10;}
	.st5{fill:none;stroke:#000000;stroke-width:50;stroke-miterlimit:10;}
	.st6{fill:#FFFFFF;stroke:#000000;stroke-width:20;stroke-miterlimit:10;}
	.st7{fill:#FFFFFF;stroke:#000000;stroke-width:29;stroke-miterlimit:10;}
	.st8{fill:#FFFFFF;}
</style>
<g id="Capa_1" class="st0">
	<circle class="st1" cx="112.8" cy="246.3" r="18.8"/>
	<circle class="st1" cx="170.2" cy="246.3" r="18.8"/>
	<circle class="st1" cx="275.1" cy="247.5" r="18.8"/>
	<circle class="st1" cx="434" cy="247" r="18.8"/>
	<g class="st2">
		<g>
			<rect x="58" y="232" class="st3" width="1" height="32"/>
		</g>
		<g>
			<rect x="42" y="248" class="st3" width="32" height="1"/>
		</g>
	</g>
	<g class="st2">
		<g>
			<rect x="224" y="232" class="st3" width="1" height="32"/>
		</g>
		<g>
			<rect x="208" y="248" class="st3" width="32" height="1"/>
		</g>
	</g>
	<g class="st2">
		<g>
			<rect x="330" y="232" class="st3" width="1" height="32"/>
		</g>
		<g>
			<rect x="314" y="248" class="st3" width="32" height="1"/>
		</g>
	</g>
	<g class="st2">
		<g>
			<rect x="381" y="232" class="st3" width="1" height="32"/>
		</g>
		<g>
			<rect x="365" y="248" class="st3" width="32" height="1"/>
		</g>
	</g>
</g>
<g id="Capa_2" class="st0">
	<g class="st2">
		<path class="st4" d="M444.1,197.9c-6-22.1-15.6-42.8-28.2-61.2c-10.8,4-22.5,6.2-34.8,6.2c-52.2,0-95.1-40-99.5-91.1
			c-10.2-1.6-20.7-2.4-31.3-2.4c-29.2,0-56.8,6.3-81.8,17.4c7.2,16.2,11.3,34.2,11.3,53.1c0,72-58.3,130.3-130.3,130.3
			c0,40.3,11.9,77.9,32.4,109.3c7.6-1.8,15.5-2.8,23.6-2.8c51.5,0,94,39,99.4,89.1c14.6,3.4,29.8,5.2,45.5,5.2
			c8.7,0,17.2-0.6,25.5-1.7L249,220.6L444.1,197.9z M108.5,287.8c-4.8,0-8.7-3.9-8.7-8.7s3.9-8.7,8.7-8.7c4.8,0,8.7,3.9,8.7,8.7
			S113.3,287.8,108.5,287.8z M156.8,263.5c-4.8,0-8.7-3.9-8.7-8.7c0-4.8,3.9-8.7,8.7-8.7c4.8,0,8.7,3.9,8.7,8.7
			C165.5,259.6,161.6,263.5,156.8,263.5z M189.8,225c-4.8,0-8.7-3.9-8.7-8.7c0-4.8,3.9-8.7,8.7-8.7c4.8,0,8.7,3.9,8.7,8.7
			C198.5,221.1,194.6,225,189.8,225z M218.7,169.9c-4.8,0-8.7-3.9-8.7-8.7c0-4.8,3.9-8.7,8.7-8.7c4.8,0,8.7,3.9,8.7,8.7
			C227.4,166,223.5,169.9,218.7,169.9z M229,112.6c-4.8,0-8.7-3.9-8.7-8.7c0-4.8,3.9-8.7,8.7-8.7c4.8,0,8.7,3.9,8.7,8.7
			C237.7,108.7,233.8,112.6,229,112.6z"/>
		<path class="st4" d="M105.4,356.7c-8.1,0-16.1,1-23.6,2.8c27.9,42.9,71.7,74.4,123,86.3C199.3,395.7,156.9,356.7,105.4,356.7z"/>
		<path class="st4" d="M179.6,119.9c0-18.9-4.1-36.9-11.3-53.1c-70.1,31.3-119,101.6-119,183.4C121.3,250.2,179.6,191.9,179.6,119.9
			z"/>
		<path class="st4" d="M381,142.9c12.2,0,23.9-2.2,34.8-6.2c-5.6-8.1-11.7-15.7-18.3-22.9c-5.3,1.2-10.8,1.9-16.4,1.9
			c-34.9,0-63.9-24.5-71-57.3c-9.2-2.9-18.7-5.1-28.5-6.6C286,102.9,328.8,142.9,381,142.9z"/>
		<path class="st4" d="M310,58.4c7.1,32.7,36.2,57.3,71,57.3c5.7,0,11.1-0.7,16.4-1.9C373.9,88.3,343.9,69,310,58.4z"/>
		<circle cx="229" cy="103.9" r="8.7"/>
		<circle cx="218.7" cy="161.1" r="8.7"/>
		<circle cx="189.8" cy="216.3" r="8.7"/>
		<circle cx="156.8" cy="254.8" r="8.7"/>
		<circle cx="108.5" cy="279.1" r="8.7"/>
		<path class="st4" d="M451,250.2c0-18.1-2.4-35.6-6.9-52.3L249,220.6l26.7,228.7C374.5,436.8,451,352.5,451,250.2z"/>
		<line class="st4" x1="275.7" y1="449.4" x2="444.1" y2="197.9"/>
	</g>
</g>
<g id="Capa_3" class="st0">
	<g class="st2">
		<g>
			<path d="M250.4,452.9C138.8,453,48,362.2,47.9,250.6C47.8,139.1,138.5,48.2,250.1,48.1c111.6-0.1,202.4,90.6,202.5,202.2
				S362,452.8,250.4,452.9z M250.1,54.1C141.9,54.2,53.8,142.4,53.9,250.6S142.1,447,250.4,446.9c108.3-0.1,196.3-88.2,196.2-196.5
				S358.4,54,250.1,54.1z"/>
		</g>
		<g>
			<path d="M250.3,276.5c-14.4,0-26-11.7-26.1-26c0-14.4,11.7-26,26-26.1c14.4,0,26,11.7,26.1,26
				C276.3,264.8,264.7,276.5,250.3,276.5z M250.3,230.5c-11,0-20,9-20,20c0,11,9,20,20,20c11,0,20-9,20-20
				C270.3,239.4,261.3,230.5,250.3,230.5z"/>
		</g>
		<g>
			<path d="M250.3,305.6c-30.4,0-55.1-24.7-55.2-55.1s24.7-55.1,55.1-55.2s55.1,24.7,55.2,55.1C305.4,280.9,280.7,305.6,250.3,305.6
				z M250.3,201.4c-27.1,0-49.1,22.1-49.1,49.2s22.1,49.1,49.2,49.1c27.1,0,49.1-22.1,49.1-49.2
				C299.4,223.4,277.3,201.3,250.3,201.4z"/>
		</g>
		<g>
			<path d="M250.3,334c-46,0-83.5-37.4-83.5-83.4c0-46,37.4-83.5,83.4-83.5c46,0,83.5,37.4,83.5,83.4S296.4,333.9,250.3,334z
				 M250.2,173c-42.7,0-77.5,34.8-77.4,77.5c0,42.7,34.8,77.5,77.5,77.4c42.7,0,77.5-34.8,77.4-77.5C327.7,207.7,293,173,250.2,173z
				"/>
		</g>
		<g>
			<path d="M323.4,171.9l-146.9,0.1l37-55.3l36.4-51.6L323.4,171.9z M187.7,166l124.2-0.1l-62.2-90.3l-31.4,44.5L187.7,166z"/>
		</g>
		<g>
			<path d="M250.1,431.5l-73.7-101.4l147.3-0.1l-37.3,51.9L250.1,431.5z M188.1,336l62,85.3l31.4-43l30.4-42.4L188.1,336z"/>
		</g>
		<circle cx="251.2" cy="250.8" r="23"/>
	</g>
</g>
<g id="Capa_4" class="st0">
	<g class="st2">
		<circle class="st4" cx="255.8" cy="339.3" r="30.4"/>
		<path class="st4" d="M425.6,242.7c0,114.2-82.3,206.7-183.7,206.7S75,370.4,75,256.3S157.3,49.5,258.7,49.5
			S425.6,128.6,425.6,242.7z"/>
		<path class="st4" d="M297.6,130.3l36.1-31.6c-15.6-17-38-27.6-62.9-27.6c-23.8,0-45.4,9.7-60.9,25.4"/>
		<path class="st4" d="M204.9,211.4l-35.5,31.1c15.3,14.5,36,23.4,58.7,23.4c23.8,0,45.4-9.7,60.9-25.4"/>
		<path class="st4" d="M289,240.3c15.3-15.5,24.7-36.7,24.7-60.1c0-18.6-6-35.9-16.1-49.9l-92.7,81.1"/>
		<path class="st4" d="M209.9,96.6c-15.3,15.5-24.7,36.7-24.7,60.1c0,20.8,7.4,39.8,19.7,54.6l92.7-81.1"/>
		<path class="st4" d="M270.9,377.8l23.1,32.5c34.6-4.1,61.5-33.5,61.5-69.2c0-38.5-31.2-69.7-69.7-69.7c-16.2,0-31.1,5.5-42.9,14.8
			"/>
		<path class="st4" d="M223.2,310.5l-23.3-32.8c-34.4,4.2-61,33.6-61,69.1c0,38.5,31.2,69.7,69.7,69.7c16.2,0,31.1-5.5,42.9-14.8"/>
		<path class="st4" d="M242.9,286.2c-8.3,6.5-15,14.8-19.7,24.3"/>
		<path class="st4" d="M251.4,401.7c8.2-6.4,14.8-14.5,19.5-23.9"/>
	</g>
</g>
<g id="Capa_5">
	<rect x="50" y="50" class="st5" width="400" height="400"/>
</g>
</svg>
