<?xml version="1.0" encoding="iso-8859-1"?>
<!-- Generator: Adobe Illustrator 19.0.0, SVG Export Plug-In . SVG Version: 6.00 Build 0)  -->
<svg version="1.1" id="Capa_1" xmlns="http://www.w3.org/2000/svg" xmlns:xlink="http://www.w3.org/1999/xlink" x="0px" y="0px"
	 viewBox="0 0 464 464" style="enable-background:new 0 0 464 464;" xml:space="preserve">
<g>
	<g>
		<path d="M416.427,178.347L242.133,4.267c-2.7-2.743-6.391-4.281-10.24-4.267c-3.849-0.014-7.54,1.524-10.24,4.267l-174.08,174.08
			c-5.657,5.506-5.779,14.555-0.273,20.212c2.756,2.832,6.562,4.396,10.513,4.321h75.733c5.891,0,10.667,4.776,10.667,10.667v236.16
			c0,7.894,6.399,14.293,14.293,14.293H305.28c3.844-0.009,7.527-1.544,10.24-4.267c2.743-2.7,4.281-6.391,4.267-10.24V213.547
			c0-5.891,4.776-10.667,10.667-10.667h75.733c7.893,0.149,14.412-6.128,14.561-14.02
			C420.823,184.909,419.259,181.103,416.427,178.347z"/>
	</g>
</g>
<g>
</g>
<g>
</g>
<g>
</g>
<g>
</g>
<g>
</g>
<g>
</g>
<g>
</g>
<g>
</g>
<g>
</g>
<g>
</g>
<g>
</g>
<g>
</g>
<g>
</g>
<g>
</g>
<g>
</g>
</svg>
